<svg width="512" height="516" xmlns="http://www.w3.org/2000/svg" xmlns:xlink="http://www.w3.org/1999/xlink" xml:space="preserve" overflow="hidden"><defs><clipPath id="clip0"><rect x="0" y="0" width="512" height="516"/></clipPath></defs><g clip-path="url(#clip0)"><path d="M480.5 500.5 32.5 500.5C29.7386 500.5 27.5 498.261 27.5 495.5L27.5 351.5C27.5 348.739 29.7386 346.5 32.5 346.5L480.5 346.5C483.261 346.5 485.5 348.739 485.5 351.5L485.5 495.5C485.5 498.261 483.261 500.5 480.5 500.5ZM37.5 490.5 475.5 490.5 475.5 356.5 37.5 356.5Z" transform="scale(1 1.00071)"/><path d="M176.5 452.5C173.739 452.5 171.5 450.261 171.5 447.5L171.5 261.75 26.5 261.75C18.2157 261.75 11.5 255.034 11.5 246.75L11.5 89.5C11.5 81.2157 18.2157 74.5 26.5 74.5L161.5 74.5C173.84 74.5 181.5 82.35 181.5 95L181.5 447.5C181.5 450.261 179.261 452.5 176.5 452.5ZM26.5 84.5C23.7386 84.5 21.5 86.7386 21.5 89.5L21.5 246.75C21.5 249.511 23.7386 251.75 26.5 251.75L171.5 251.75 171.5 95C171.5 87.84 168.32 84.5 161.5 84.5Z" transform="scale(1 1.00071)"/><path d="M48.5 356.5C45.7386 356.5 43.5 354.261 43.5 351.5L43.5 256.75C43.5 253.989 45.7386 251.75 48.5 251.75 51.2614 251.75 53.5 253.989 53.5 256.75L53.5 351.5C53.5 354.261 51.2614 356.5 48.5 356.5Z" transform="scale(1 1.00071)"/><path d="M432.5 500C430.239 500.001 428.258 498.484 427.67 496.3L418.78 463.4 418.78 463.3C418.49 462.24 415.51 452.5 402.69 452.5L110.75 452.5C97.26 452.5 94.25 463.27 94.22 463.38L85.33 496.3C84.612 498.968 81.8675 500.548 79.2 499.83 76.5325 499.112 74.952 496.368 75.67 493.7L84.56 460.8C85.6018 457.378 87.3609 454.218 89.72 451.53 93.28 447.41 99.82 442.53 110.72 442.53L402.67 442.53C413.54 442.53 419.98 447.47 423.47 451.61 425.766 454.309 427.47 457.46 428.47 460.86L437.35 493.73C438.069 496.396 436.49 499.14 433.824 499.859 433.822 499.859 433.821 499.86 433.82 499.86 433.388 499.962 432.944 500.009 432.5 500Z" transform="scale(1 1.00071)"/><path d="M432.5 424.5 360.67 424.5C357.909 424.5 355.67 422.261 355.67 419.5L355.67 380C355.67 377.239 357.909 375 360.67 375L432.5 375C435.261 375 437.5 377.239 437.5 380L437.5 419.5C437.5 422.261 435.261 424.5 432.5 424.5ZM365.67 414.5 427.5 414.5 427.5 385 365.67 385Z" transform="scale(1 1.00071)"/><path d="M465.45 378 462.45 378C459.689 378 457.45 375.761 457.45 373 457.45 370.239 459.689 368 462.45 368L465.45 368C468.211 368 470.45 370.239 470.45 373 470.45 375.761 468.211 378 465.45 378Z" transform="scale(1 1.00071)"/><path d="M465.45 480 462.45 480C459.689 480 457.45 477.761 457.45 475 457.45 472.239 459.689 470 462.45 470L465.45 470C468.211 470 470.45 472.239 470.45 475 470.45 477.761 468.211 480 465.45 480Z" transform="scale(1 1.00071)"/><path d="M454.26 265.75 451.26 265.75C448.499 265.75 446.26 263.511 446.26 260.75 446.26 257.989 448.499 255.75 451.26 255.75L454.26 255.75C457.021 255.75 459.26 257.989 459.26 260.75 459.26 263.511 457.021 265.75 454.26 265.75Z" transform="scale(1 1.00071)"/><path d="M454.26 333.67 451.26 333.67C448.499 333.67 446.26 331.431 446.26 328.67 446.26 325.909 448.499 323.67 451.26 323.67L454.26 323.67C457.021 323.67 459.26 325.909 459.26 328.67 459.26 331.431 457.021 333.67 454.26 333.67Z" transform="scale(1 1.00071)"/><path d="M54 378 51 378C48.2386 378 46 375.761 46 373 46 370.239 48.2386 368 51 368L54 368C56.7614 368 59 370.239 59 373 59 375.761 56.7614 378 54 378Z" transform="scale(1 1.00071)"/><path d="M54 480 51 480C48.2386 480 46 477.761 46 475 46 472.239 48.2386 470 51 470L54 470C56.7614 470 59 472.239 59 475 59 477.761 56.7614 480 54 480Z" transform="scale(1 1.00071)"/><path d="M464.5 212.5 353 212.5C350.239 212.5 348 210.261 348 207.5L348 143.5C348 140.739 350.239 138.5 353 138.5L464.5 138.5C467.261 138.5 469.5 140.739 469.5 143.5L469.5 207.5C469.5 210.261 467.261 212.5 464.5 212.5ZM358 202.5 459.5 202.5 459.5 148.5 358 148.5Z" transform="scale(1 1.00071)"/><path d="M432.5 356.5C429.739 356.5 427.5 354.261 427.5 351.5L427.5 207.5C427.5 204.739 429.739 202.5 432.5 202.5 435.261 202.5 437.5 204.739 437.5 207.5L437.5 351.5C437.5 354.261 435.261 356.5 432.5 356.5Z" transform="scale(1 1.00071)"/><path d="M486.5 356.5 432.5 356.5C429.739 356.5 427.5 354.261 427.5 351.5 427.5 348.739 429.739 346.5 432.5 346.5L486.5 346.5C489.261 346.5 491.5 344.261 491.5 341.5L491.5 249.5C491.5 246.739 489.261 244.5 486.5 244.5L432.5 244.5C429.739 244.5 427.5 242.261 427.5 239.5 427.5 236.739 429.739 234.5 432.5 234.5L486.5 234.5C494.784 234.5 501.5 241.216 501.5 249.5L501.5 341.5C501.5 349.784 494.784 356.5 486.5 356.5Z" transform="scale(1 1.00071)"/><path d="M496.5 212.5C493.739 212.5 491.5 210.261 491.5 207.5L491.5 143.5C491.5 140.739 493.739 138.5 496.5 138.5 499.261 138.5 501.5 140.739 501.5 143.5L501.5 207.5C501.5 210.261 499.261 212.5 496.5 212.5Z" transform="scale(1 1.00071)"/><path d="M496.5 180.75 464.5 180.75C461.739 180.75 459.5 178.511 459.5 175.75 459.5 172.989 461.739 170.75 464.5 170.75L496.5 170.75C499.261 170.75 501.5 172.989 501.5 175.75 501.5 178.511 499.261 180.75 496.5 180.75Z" transform="scale(1 1.00071)"/><path d="M432.5 147.5C429.739 147.5 427.5 145.261 427.5 142.5L427.5 115.5 177 115.5C174.239 115.5 172 113.261 172 110.5 172 107.739 174.239 105.5 177 105.5L432.5 105.5C435.261 105.5 437.5 107.739 437.5 110.5L437.5 142.5C437.5 145.261 435.261 147.5 432.5 147.5Z" transform="scale(1 1.00071)"/><path d="M352.5 338.75 240.5 338.75C237.739 338.75 235.5 336.511 235.5 333.75L235.5 253.75C235.5 250.989 237.739 248.75 240.5 248.75L352.5 248.75C355.261 248.75 357.5 250.989 357.5 253.75L357.5 333.75C357.5 336.511 355.261 338.75 352.5 338.75ZM245.5 328.75 347.5 328.75 347.5 258.75 245.5 258.75Z" transform="scale(1 1.00071)"/><path d="M240.5 274.58 176.5 274.58C173.739 274.58 171.5 272.341 171.5 269.58 171.5 266.819 173.739 264.58 176.5 264.58L240.5 264.58C243.261 264.58 245.5 266.819 245.5 269.58 245.5 272.341 243.261 274.58 240.5 274.58Z" transform="scale(1 1.00071)"/><path d="M240.5 322.67 176.5 322.67C173.739 322.67 171.5 320.431 171.5 317.67 171.5 314.909 173.739 312.67 176.5 312.67L240.5 312.67C243.261 312.67 245.5 314.909 245.5 317.67 245.5 320.431 243.261 322.67 240.5 322.67Z" transform="scale(1 1.00071)"/><path d="M240.5 298.75 176.5 298.75C173.739 298.75 171.5 296.511 171.5 293.75 171.5 290.989 173.739 288.75 176.5 288.75L240.5 288.75C243.261 288.75 245.5 290.989 245.5 293.75 245.5 296.511 243.261 298.75 240.5 298.75Z" transform="scale(1 1.00071)"/><path d="M432.5 274.58 353 274.58C350.239 274.58 348 272.341 348 269.58 348 266.819 350.239 264.58 353 264.58L432.5 264.58C435.261 264.58 437.5 266.819 437.5 269.58 437.5 272.341 435.261 274.58 432.5 274.58Z" transform="scale(1 1.00071)"/><path d="M432.5 322.67 353 322.67C350.239 322.67 348 320.431 348 317.67 348 314.909 350.239 312.67 353 312.67L432.5 312.67C435.261 312.67 437.5 314.909 437.5 317.67 437.5 320.431 435.261 322.67 432.5 322.67Z" transform="scale(1 1.00071)"/><path d="M432.5 298.75 353 298.75C350.239 298.75 348 296.511 348 293.75 348 290.989 350.239 288.75 353 288.75L432.5 288.75C435.261 288.75 437.5 290.989 437.5 293.75 437.5 296.511 435.261 298.75 432.5 298.75Z" transform="scale(1 1.00071)"/><path d="M352.5 197.25C352.026 197.252 351.554 197.184 351.1 197.05L328.35 190.43C326.213 189.807 324.746 187.846 324.75 185.62L324.75 167.12C324.75 164.971 326.123 163.063 328.16 162.38L350.91 154.76C353.516 153.848 356.369 155.221 357.281 157.827 358.194 160.433 356.821 163.286 354.214 164.198 354.173 164.213 354.132 164.227 354.09 164.24L334.75 170.72 334.75 181.87 353.9 187.45C356.551 188.223 358.073 190.999 357.3 193.65 356.678 195.783 354.722 197.25 352.5 197.25Z" transform="scale(1 1.00071)"/><path d="M320.5 237 256 237C253.239 237 251 234.761 251 232L251 207.5C251 204.739 253.239 202.5 256 202.5L320.5 202.5C323.261 202.5 325.5 204.739 325.5 207.5L325.5 232C325.5 234.761 323.261 237 320.5 237ZM261 227 315.5 227 315.5 212.5 261 212.5Z" transform="scale(1 1.00071)"/><path d="M288.5 258.12C285.739 258.12 283.5 255.881 283.5 253.12L283.5 232C283.5 229.239 285.739 227 288.5 227 291.261 227 293.5 229.239 293.5 232L293.5 253.12C293.5 255.881 291.261 258.12 288.5 258.12Z" transform="scale(1 1.00071)"/><path d="M373.35 81.29C372.771 81.2879 372.197 81.1899 371.65 81L320.93 62.71C318.333 61.7707 316.99 58.9041 317.929 56.3074 318.02 56.0565 318.13 55.8132 318.26 55.58L341.89 13.07C343.086 10.9074 345.682 9.94278 348 10.8L384.11 23.8C386.416 24.6354 387.776 27.02 387.32 29.43L378.32 77.2C377.873 79.5598 375.812 81.2687 373.41 81.27ZM329.86 55.29 369.53 69.59 376.67 31.77 348.56 21.65Z" transform="scale(1 1.00071)"/><path d="M431.4 67.16C431.081 67.1598 430.763 67.1297 430.45 67.07L377 56.78C374.255 56.4799 372.273 54.0113 372.573 51.2662 372.873 48.5211 375.342 46.5391 378.087 46.8392 378.365 46.8697 378.641 46.9234 378.91 47L432.34 57.29C435.052 57.8116 436.827 60.4327 436.306 63.1444 435.853 65.4969 433.796 67.1979 431.4 67.2Z" transform="scale(1 1.00071)"/><path d="M448.5 87.86C436.289 87.86 426.39 77.961 426.39 65.75 426.39 53.539 436.289 43.64 448.5 43.64 460.711 43.64 470.61 53.539 470.61 65.75 470.593 77.9542 460.704 87.8435 448.5 87.86ZM448.5 53.64C441.812 53.64 436.39 59.0618 436.39 65.75 436.39 72.4382 441.812 77.86 448.5 77.86 455.188 77.86 460.61 72.4382 460.61 65.75 460.604 59.0641 455.186 53.6455 448.5 53.64Z" transform="scale(1 1.00071)"/><path d="M448.5 70.75C445.739 70.75 443.5 68.5114 443.5 65.75L443.5 64.75C443.5 61.9886 445.739 59.75 448.5 59.75 451.261 59.75 453.5 61.9886 453.5 64.75L453.5 65.75C453.5 68.5114 451.261 70.75 448.5 70.75Z" transform="scale(1 1.00071)"/><path d="M448.5 147.5C445.739 147.5 443.5 145.261 443.5 142.5L443.5 82.86C443.5 80.0986 445.739 77.86 448.5 77.86 451.261 77.86 453.5 80.0986 453.5 82.86L453.5 142.5C453.5 145.261 451.261 147.5 448.5 147.5Z" transform="scale(1 1.00071)"/><path d="M448.75 244.5C445.989 244.5 443.75 242.261 443.75 239.5L443.75 207.5C443.75 204.739 445.989 202.5 448.75 202.5 451.511 202.5 453.75 204.739 453.75 207.5L453.75 239.5C453.75 242.261 451.511 244.5 448.75 244.5Z" transform="scale(1 1.00071)"/><path d="M200 148.5 177 148.5C174.239 148.5 172 146.261 172 143.5 172 140.739 174.239 138.5 177 138.5L200 138.5C202.761 138.5 205 140.739 205 143.5 205 146.261 202.761 148.5 200 148.5Z" transform="scale(1 1.00071)"/><path d="M200 211.54 177 211.54C174.239 211.54 172 209.301 172 206.54 172 203.779 174.239 201.54 177 201.54L200 201.54C202.761 201.54 205 203.779 205 206.54 205 209.301 202.761 211.54 200 211.54Z" transform="scale(1 1.00071)"/><path d="M247.25 154.64 230.67 154.64C227.909 154.64 225.67 152.401 225.67 149.64 225.67 146.879 227.909 144.64 230.67 144.64L247.25 144.64C250.011 144.64 252.25 146.879 252.25 149.64 252.25 152.401 250.011 154.64 247.25 154.64Z" transform="scale(1 1.00071)"/><path d="M247.25 200.86 230.67 200.86C227.909 200.86 225.67 198.621 225.67 195.86 225.67 193.099 227.909 190.86 230.67 190.86L247.25 190.86C250.011 190.86 252.25 193.099 252.25 195.86 252.25 198.621 250.011 200.86 247.25 200.86Z" transform="scale(1 1.00071)"/><path d="M247.25 177.75 230.67 177.75C227.909 177.75 225.67 175.511 225.67 172.75 225.67 169.989 227.909 167.75 230.67 167.75L247.25 167.75C250.011 167.75 252.25 169.989 252.25 172.75 252.25 175.511 250.011 177.75 247.25 177.75Z" transform="scale(1 1.00071)"/><path d="M226 228.5 200 228.5C197.239 228.5 195 226.261 195 223.5L195 128C195 125.239 197.239 123 200 123L226 123C228.761 123 231 125.239 231 128L231 223.5C231 226.261 228.761 228.5 226 228.5ZM205 218.5 221 218.5 221 133 205 133Z" transform="scale(1 1.00071)"/><path d="M96.5 181.13C79.1086 181.124 65.0145 167.021 65.02 149.63 65.0255 132.239 79.1286 118.144 96.52 118.15 113.908 118.156 128 132.252 128 149.64 127.983 167.028 113.888 181.119 96.5 181.13ZM96.5 128.13C84.6314 128.136 75.0145 137.761 75.02 149.63 75.0255 161.499 84.6514 171.116 96.52 171.11 108.377 171.104 117.989 161.497 118 149.64 117.989 137.772 108.368 128.156 96.5 128.15Z" transform="scale(1 1.00071)"/><path d="M144.5 237 48.5 237C45.7386 237 43.5 234.761 43.5 232L43.5 201.67C43.5 198.909 45.7386 196.67 48.5 196.67L144.5 196.67C147.261 196.67 149.5 198.909 149.5 201.67L149.5 232C149.5 234.761 147.261 237 144.5 237ZM53.5 227 139.5 227 139.5 206.67 53.5 206.67Z" transform="scale(1 1.00071)"/><path d="M335.25 276.25 332.25 276.25C329.489 276.25 327.25 274.011 327.25 271.25 327.25 268.489 329.489 266.25 332.25 266.25L335.25 266.25C338.011 266.25 340.25 268.489 340.25 271.25 340.25 274.011 338.011 276.25 335.25 276.25Z" transform="scale(1 1.00071)"/><path d="M335.25 320 332.25 320C329.489 320 327.25 317.761 327.25 315 327.25 312.239 329.489 310 332.25 310L335.25 310C338.011 310 340.25 312.239 340.25 315 340.25 317.761 338.011 320 335.25 320Z" transform="scale(1 1.00071)"/><path d="M262.75 276.25 259.75 276.25C256.989 276.25 254.75 274.011 254.75 271.25 254.75 268.489 256.989 266.25 259.75 266.25L262.75 266.25C265.511 266.25 267.75 268.489 267.75 271.25 267.75 274.011 265.511 276.25 262.75 276.25Z" transform="scale(1 1.00071)"/><path d="M262.75 320 259.75 320C256.989 320 254.75 317.761 254.75 315 254.75 312.239 256.989 310 259.75 310L262.75 310C265.511 310 267.75 312.239 267.75 315 267.75 317.761 265.511 320 262.75 320Z" transform="scale(1 1.00071)"/><path d="M96.5 144.5C93.7386 144.5 91.5 142.261 91.5 139.5L91.5 136.5C91.5 133.739 93.7386 131.5 96.5 131.5 99.2614 131.5 101.5 133.739 101.5 136.5L101.5 139.5C101.5 142.261 99.2614 144.5 96.5 144.5Z" transform="scale(1 1.00071)"/><path d="M75.33 326.16C72.5686 326.16 70.33 323.921 70.33 321.16L70.33 283C70.33 280.239 72.5686 278 75.33 278 78.0914 278 80.33 280.239 80.33 283L80.33 321.16C80.33 323.921 78.0914 326.16 75.33 326.16Z" transform="scale(1 1.00071)"/><path d="M100.11 326.16C97.3486 326.16 95.11 323.921 95.11 321.16L95.11 283C95.11 280.239 97.3486 278 100.11 278 102.871 278 105.11 280.239 105.11 283L105.11 321.16C105.11 323.921 102.871 326.16 100.11 326.16Z" transform="scale(1 1.00071)"/><path d="M149.67 326.16C146.909 326.16 144.67 323.921 144.67 321.16L144.67 283C144.67 280.239 146.909 278 149.67 278 152.431 278 154.67 280.239 154.67 283L154.67 321.16C154.67 323.921 152.431 326.16 149.67 326.16Z" transform="scale(1 1.00071)"/><path d="M124.89 326.16C122.129 326.16 119.89 323.921 119.89 321.16L119.89 283C119.89 280.239 122.129 278 124.89 278 127.651 278 129.89 280.239 129.89 283L129.89 321.16C129.89 323.921 127.651 326.16 124.89 326.16Z" transform="scale(1 1.00071)"/><path d="M131 189.11C128.239 189.104 126.005 186.86 126.011 184.099 126.014 182.779 126.538 181.515 127.47 180.58 144.561 163.492 144.564 135.785 127.476 118.694 110.388 101.603 82.681 101.6 65.59 118.688 48.499 135.776 48.4963 163.483 65.584 180.574 65.586 180.576 65.588 180.578 65.59 180.58 67.5763 182.498 67.6313 185.664 65.7129 187.65 63.7945 189.636 60.6291 189.691 58.6429 187.773 58.6012 187.733 58.5602 187.692 58.52 187.65 37.5255 166.663 37.5192 132.631 58.506 111.636 79.4928 90.6415 113.525 90.6352 134.52 111.622 155.515 132.609 155.521 166.641 134.534 187.636 134.529 187.641 134.525 187.645 134.52 187.65 133.585 188.582 132.32 189.107 131 189.11Z" transform="scale(1 1.00071)"/><text font-family="Arial,Arial_MSFontService,sans-serif" font-weight="700" font-size="5" transform="matrix(1 0 0 1.00071 0 527)">Created by Jino</text><text font-family="Arial,Arial_MSFontService,sans-serif" font-weight="700" font-size="5" transform="matrix(1 0 0 1.00071 0 532)">from the Noun Project</text></g></svg>