<svg width="100" height="103" xmlns="http://www.w3.org/2000/svg" xmlns:xlink="http://www.w3.org/1999/xlink" xml:space="preserve" overflow="hidden"><defs><clipPath id="clip0"><rect x="0" y="0" width="100" height="103"/></clipPath></defs><g clip-path="url(#clip0)"><path d="M90.2612 18.9499 83.2797 18.9499C81.9026 18.9499 80.7863 20.0662 80.7863 21.4433L80.7863 81.285C80.7863 82.662 81.9026 83.7784 83.2797 83.7784L90.2612 83.7784C91.6383 83.7784 92.7546 82.662 92.7546 81.285L92.7546 21.4433C92.7546 20.0662 91.6383 18.9499 90.2612 18.9499ZM90.7599 81.285C90.7599 81.5604 90.5366 81.7836 90.2612 81.7836L83.2797 81.7836C83.0043 81.7836 82.781 81.5604 82.781 81.285L82.781 73.8047 86.7006 73.8047C87.2514 73.8047 87.698 73.3582 87.698 72.8074 87.698 72.2566 87.2514 71.81 86.7006 71.81L82.781 71.81 82.781 68.8179 88.6953 68.8179C89.2462 68.8179 89.6927 68.3714 89.6927 67.8206 89.6927 67.2697 89.2462 66.8232 88.6953 66.8232L82.781 66.8232 82.781 63.8311 84.5064 63.8311C85.0573 63.8311 85.5038 63.3846 85.5038 62.8338 85.5038 62.2829 85.0573 61.8364 84.5064 61.8364L82.781 61.8364 82.781 58.8443 88.6953 58.8443C89.2462 58.8443 89.6927 58.3978 89.6927 57.847 89.6927 57.2961 89.2462 56.8496 88.6953 56.8496L82.781 56.8496 82.781 53.8575 84.5064 53.8575C85.0573 53.8575 85.5038 53.411 85.5038 52.8602 85.5038 52.3093 85.0573 51.8628 84.5064 51.8628L82.781 51.8628 82.781 48.8707 87.6282 48.8707C88.179 48.8707 88.6255 48.4242 88.6255 47.8733 88.6255 47.3225 88.179 46.876 87.6282 46.876L82.781 46.876 82.781 43.8839 84.5064 43.8839C85.0573 43.8839 85.5038 43.4374 85.5038 42.8865 85.5038 42.3357 85.0573 41.8892 84.5064 41.8892L82.781 41.8892 82.781 38.8971 89.4035 38.8971C89.9543 38.8971 90.4008 38.4506 90.4008 37.8997 90.4008 37.3489 89.9543 36.9024 89.4035 36.9024L82.781 36.9024 82.781 33.9103 84.9752 33.9103C85.526 33.9103 85.9725 33.4638 85.9725 32.9129 85.9725 32.3621 85.526 31.9156 84.9752 31.9156L82.781 31.9156 82.781 28.9235 88.4261 28.9235C88.9769 28.9235 89.4234 28.4769 89.4234 27.9261 89.4234 27.3753 88.9769 26.9288 88.4261 26.9288L82.781 26.9288 82.781 23.9367 86.7006 23.9367C87.2514 23.9367 87.698 23.4901 87.698 22.9393 87.698 22.3885 87.2514 21.9419 86.7006 21.9419L82.781 21.9419 82.781 21.4433C82.781 21.1679 83.0043 20.9446 83.2797 20.9446L90.2612 20.9446C90.5366 20.9446 90.7599 21.1679 90.7599 21.4433Z" transform="scale(1.00265 1)"/><path d="M13.0754 37.8997 13.0754 37.8997C13.5005 37.8966 13.8769 37.6243 14.0129 37.2215L19.2491 21.9419 56.4606 21.9419C57.0115 21.9419 57.458 21.4954 57.458 20.9446 57.458 20.3938 57.0115 19.9472 56.4606 19.9472L18.5609 19.9472C18.1321 19.9461 17.7506 20.2192 17.6134 20.6254L13.1253 33.7108 9.03609 20.805C8.90318 20.2704 8.36209 19.9448 7.82754 20.0777 7.29299 20.2107 6.9674 20.7517 7.10032 21.2863 7.11106 21.3295 7.12469 21.372 7.14111 21.4133L12.1279 37.2016C12.2581 37.6157 12.6413 37.898 13.0754 37.8997Z" transform="scale(1.00265 1)"/><path d="M22.4805 36.9024C22.6646 37.0496 22.8931 37.1305 23.1288 37.1318 23.4204 37.1318 23.6973 37.0042 23.8868 36.7827L27.8264 32.125 31.756 36.7827C31.9477 37.0069 32.2289 37.1347 32.524 37.1318 32.757 37.1322 32.9828 37.0511 33.1623 36.9024 33.5836 36.5476 33.6376 35.9184 33.2828 35.497 33.2825 35.4967 33.2822 35.4964 33.282 35.4961L29.1329 30.5791 33.2819 25.6621C33.6372 25.2407 33.5836 24.6111 33.1623 24.2558 32.7409 23.9005 32.1113 23.9541 31.756 24.3755L27.8264 29.0332 23.9367 24.3755C23.6149 23.9284 22.9917 23.8268 22.5446 24.1486 22.0975 24.4703 21.9959 25.0936 22.3176 25.5407 22.3487 25.5838 22.3832 25.6244 22.4207 25.6621L26.5697 30.5791 22.4207 35.4961C22.05 35.9014 22.0768 36.53 22.4805 36.9024Z" transform="scale(1.00265 1)"/><path d="M50.7059 39.8945C50.285 39.5391 49.6557 39.5923 49.3004 40.0132 49.3001 40.0135 49.2998 40.0138 49.2996 40.0141L39.8945 51.0948C39.5364 51.5162 39.5878 52.1481 40.0092 52.5061 40.4305 52.8641 41.0624 52.8128 41.4204 52.3914L50.8654 41.2708C51.1916 40.8439 51.1211 40.2354 50.7059 39.8945Z" transform="scale(1.00265 1)"/><path d="M21.3435 45.8786C21.3435 46.4295 21.7901 46.876 22.3409 46.876L26.9288 46.876 26.9288 51.0649C26.9288 51.6157 27.3753 52.0623 27.9261 52.0623 28.4769 52.0623 28.9235 51.6157 28.9235 51.0649L28.9235 46.876 33.5113 46.876C34.0622 46.876 34.5087 46.4295 34.5087 45.8786 34.5087 45.3278 34.0622 44.8813 33.5113 44.8813L28.9235 44.8813 28.9235 40.6923C28.9235 40.1415 28.4769 39.695 27.9261 39.695 27.3753 39.695 26.9288 40.1415 26.9288 40.6923L26.9288 44.8813 22.3409 44.8813C21.7901 44.8813 21.3435 45.3278 21.3435 45.8786Z" transform="scale(1.00265 1)"/><path d="M39.7847 31.9156 50.9452 31.9156C51.496 31.9156 51.9426 31.469 51.9426 30.9182 51.9426 30.3674 51.496 29.9208 50.9452 29.9208L39.7847 29.9208C39.2339 29.9208 38.7874 30.3674 38.7874 30.9182 38.7874 31.469 39.2339 31.9156 39.7847 31.9156Z" transform="scale(1.00265 1)"/><path d="M39.5155 42.8865 40.054 42.8865C40.6049 42.8865 41.0514 42.44 41.0514 41.8892 41.0514 41.3383 40.6049 40.8918 40.054 40.8918L39.5155 40.8918C38.9646 40.8918 38.5181 41.3383 38.5181 41.8892 38.5181 42.44 38.9646 42.8865 39.5155 42.8865Z" transform="scale(1.00265 1)"/><path d="M50.6859 50.8654 51.2145 50.8654C51.7653 50.8654 52.2119 50.4189 52.2119 49.8681 52.2119 49.3172 51.7653 48.8707 51.2145 48.8707L50.6859 48.8707C50.1351 48.8707 49.6885 49.3172 49.6885 49.8681 49.6885 50.4189 50.1351 50.8654 50.6859 50.8654Z" transform="scale(1.00265 1)"/><path d="M10.1831 70.8127C10.1831 77.9039 16.3567 83.6686 23.9367 83.6686 31.5166 83.6686 37.6703 77.9139 37.6903 70.8127 37.6903 70.2618 37.2438 69.8153 36.6929 69.8153L24.934 69.8153 24.934 58.984C24.934 58.4331 24.4875 57.9866 23.9367 57.9866 16.3567 57.9567 10.1831 63.7214 10.1831 70.8127ZM22.9393 60.0013 22.9393 70.8127C22.9393 71.3635 23.3858 71.81 23.9367 71.81L35.6457 71.81C35.0971 77.3354 30.0605 81.6739 23.9367 81.6739 17.4538 81.6739 12.1778 76.7968 12.1778 70.8127 12.1778 65.1377 16.9551 60.47 22.9393 60.0013Z" transform="scale(1.00265 1)"/><path d="M41.6797 67.8206C41.6797 60.7493 35.516 54.9945 27.9461 54.9845 27.3952 54.9845 26.9487 55.4311 26.9487 55.9819L26.9487 67.8206C26.9487 68.3714 27.3952 68.8179 27.9461 68.8179L40.6824 68.8179C41.2332 68.8179 41.6797 68.3714 41.6797 67.8206ZM28.9235 66.8232 28.9235 57.0092C34.5885 57.448 39.1165 61.607 39.6351 66.8232Z" transform="scale(1.00265 1)"/><path d="M58.8443 38.0194C58.9071 38.0292 58.971 38.0292 59.0338 38.0194 61.9262 37.4609 63.9209 32.8232 66.2348 27.4474 66.8631 25.9912 67.5313 24.4553 68.2295 22.9593L70.5633 22.9593C71.1141 22.9593 71.5607 22.5127 71.5607 21.9619 71.5607 21.4111 71.1141 20.9645 70.5633 20.9645L69.187 20.9645C70.4636 18.6706 71.82 16.9751 73.1764 16.9751L73.1764 16.9751C73.9987 16.9071 74.8265 16.9882 75.6199 17.2145 76.1322 17.4375 76.7283 17.2031 76.9514 16.6908 77.1745 16.1786 76.9401 15.5825 76.4278 15.3594 75.3862 15.0206 74.2891 14.8851 73.1964 14.9604L73.0866 14.9604C70.5733 14.9604 68.6484 17.4937 66.8631 20.9446L64.3298 20.9446C63.779 20.9446 63.3324 21.3911 63.3324 21.9419 63.3324 22.4928 63.779 22.9393 64.3298 22.9393L65.9854 22.9393C65.4369 24.1262 64.8983 25.3729 64.3498 26.6395 62.5246 30.8783 60.46 35.6856 58.605 36.0446 58.0541 36.097 57.65 36.5859 57.7023 37.1367 57.7547 37.6876 58.2436 38.0917 58.7945 38.0394Z" transform="scale(1.00265 1)"/><path d="M76.2882 30.9182C75.9003 30.5271 75.2688 30.5245 74.8777 30.9124 74.8758 30.9143 74.8738 30.9163 74.8719 30.9182L73.0368 32.6237 71.2016 30.9182C70.9006 30.4569 70.2826 30.327 69.8213 30.6281 69.36 30.9291 69.2301 31.5471 69.5312 32.0084 69.6054 32.1221 69.7021 32.2195 69.8153 32.2946L71.5707 33.9103 69.8153 35.5061C69.4352 35.8939 69.4352 36.5146 69.8153 36.9024 70.2043 37.2891 70.8326 37.2891 71.2216 36.9024L73.0567 35.1969 74.8919 36.9024C75.0758 37.0746 75.3181 37.1708 75.5701 37.1717 75.85 37.1736 76.1178 37.0577 76.3081 36.8525 76.6828 36.4488 76.6593 35.8177 76.2556 35.443 76.2532 35.4407 76.2507 35.4385 76.2483 35.4362L74.5029 33.9103 76.2283 32.3045C76.6192 31.9343 76.6456 31.3207 76.2882 30.9182Z" transform="scale(1.00265 1)"/><path d="M51.8628 83.7784C51.8628 84.3292 52.3093 84.7757 52.8602 84.7757L69.0274 84.7757C69.1468 84.7718 69.2647 84.7482 69.3765 84.7059L69.4463 84.7059 69.5061 84.7059 73.2761 82.7112C73.6169 82.5303 73.8228 82.169 73.8047 81.7836L73.8047 65.8259 73.8047 65.8259C73.8191 65.7233 73.8191 65.6192 73.8047 65.5167 73.8047 65.5167 73.8047 65.5167 73.8047 65.5167L73.7449 65.4169C73.7076 65.3468 73.6642 65.2801 73.6152 65.2175L73.5255 65.1377C73.4656 65.0823 73.3985 65.0353 73.326 64.998L73.2263 64.9482C73.0956 64.8819 72.9534 64.8413 72.8074 64.8285L55.4034 64.8285C55.1119 64.8285 54.8349 64.956 54.6454 65.1776L52.1022 68.1696C52.1022 68.1696 52.1022 68.2494 52.0323 68.2893 51.9896 68.3434 51.9559 68.404 51.9326 68.4689 51.9232 68.5384 51.9232 68.6088 51.9326 68.6783 51.9021 68.7209 51.8786 68.768 51.8628 68.8179ZM69.8153 69.4064 71.81 68.0699 71.81 81.3747 69.8153 82.3122ZM55.6827 66.8232 69.8153 66.8232 68.5287 67.8206 54.8549 67.8206ZM53.8575 69.8153 67.8206 69.8153 67.8206 82.781 53.8575 82.781Z" transform="scale(1.00265 1)"/><path d="M75.7995 60.2905 75.7995 41.6299C75.7995 39.1265 70.8127 38.4583 67.8206 38.4583 64.8285 38.4583 59.8417 39.1265 59.8417 41.6299L59.8417 60.2905C59.8417 62.7939 64.8285 63.4621 67.8206 63.4621 70.8127 63.4621 75.7995 62.8338 75.7995 60.2905ZM67.8206 40.6724C71.0919 40.6724 73.0467 41.3905 73.5654 41.7994 73.0467 42.2083 71.0919 42.9165 67.8206 42.9165 64.5492 42.9165 62.5944 42.2083 62.0758 41.7994 62.6443 41.3905 64.5991 40.6724 67.8704 40.6724ZM67.8206 61.248C64.5492 61.248 62.5944 60.5299 62.0758 60.1209 62.5944 59.712 64.5492 59.0039 67.8206 59.0039 71.0919 59.0039 73.0467 59.712 73.5654 60.1209 73.0966 60.5299 71.1418 61.248 67.8704 61.248ZM73.8047 58.1063C69.9153 56.8428 65.7258 56.8428 61.8364 58.1063L61.8364 43.8141C65.7258 45.0776 69.9153 45.0776 73.8047 43.8141Z" transform="scale(1.00265 1)"/><text font-family="Arial,Arial_MSFontService,sans-serif" font-weight="700" font-size="5" transform="matrix(1 0 0 0.997361 0 115)">Created by DhinsLabs</text><text font-family="Arial,Arial_MSFontService,sans-serif" font-weight="700" font-size="5" transform="matrix(1 0 0 0.997361 0 120)">from the Noun Project</text></g></svg>