<svg width="110" height="121" xmlns="http://www.w3.org/2000/svg" xmlns:xlink="http://www.w3.org/1999/xlink" xml:space="preserve" overflow="hidden"><defs><clipPath id="clip0"><rect x="0" y="0" width="110" height="121"/></clipPath></defs><g clip-path="url(#clip0)"><path d="M66.8 41.42C66.8 43.7672 64.8972 45.67 62.55 45.67 60.2028 45.67 58.3 43.7672 58.3 41.42 58.3 39.0728 60.2028 37.17 62.55 37.17 64.8972 37.17 66.8 39.0728 66.8 41.42Z" transform="matrix(1 0 0 1.00227 0 0.250566)"/><path d="M38.63 77.39C44.981 76.7374 49.6005 71.06 48.9479 64.709 48.2953 58.358 42.6179 53.7385 36.2669 54.3911 30.783 54.9545 26.4601 59.3119 25.94 64.8L25.94 65.9C25.951 72.2821 31.1279 77.45 37.51 77.45 37.8841 77.4502 38.258 77.4302 38.63 77.39ZM31.19 65.9C31.19 62.4482 33.9882 59.65 37.44 59.65 40.8918 59.65 43.69 62.4482 43.69 65.9 43.69 69.3518 40.8918 72.15 37.44 72.15 33.9905 72.1445 31.1955 69.3495 31.19 65.9Z" transform="matrix(1 0 0 1.00227 0 0.250566)"/><path d="M62.55 53C69.0322 53.1435 74.4034 48.0049 74.5469 41.5226 74.6904 35.0404 69.5518 29.6692 63.0695 29.5257 56.5873 29.3823 51.2161 34.5209 51.0726 41.0031 51.0713 41.0654 51.0704 41.1277 51.07 41.19L51.07 42.69C51.7119 48.5491 56.6558 52.9892 62.55 53ZM62.55 35.2C66.0018 35.1945 68.8045 37.9882 68.81 41.44 68.8155 44.8918 66.0218 47.6945 62.57 47.7 59.1182 47.7055 56.3155 44.9118 56.31 41.46 56.31 41.4567 56.31 41.4533 56.31 41.45 56.2934 37.9983 59.0782 35.1866 62.5299 35.1701 62.5366 35.17 62.5433 35.17 62.55 35.17Z" transform="matrix(1 0 0 1.00227 0 0.250566)"/><path d="M84.11 78.42 84.11 69.61C84.1155 68.8313 83.4888 68.1955 82.7101 68.19 82.7034 68.19 82.6967 68.19 82.69 68.19L67.52 68.19C66.7397 68.1955 66.11 68.8296 66.11 69.61L66.11 78.42C66.11 79.1987 66.7413 79.83 67.52 79.83L82.69 79.83C83.4687 79.8355 84.1044 79.2087 84.11 78.43 84.11 78.4267 84.11 78.4233 84.11 78.42Z" transform="matrix(1 0 0 1.00227 0 0.250566)"/><path d="M41.69 65.9C41.69 68.2472 39.7872 70.15 37.44 70.15 35.0928 70.15 33.19 68.2472 33.19 65.9 33.19 63.5528 35.0928 61.65 37.44 61.65 39.7872 61.65 41.69 63.5528 41.69 65.9Z" transform="matrix(1 0 0 1.00227 0 0.250566)"/><path d="M8 7 102 7 102 16 8 16Z" transform="matrix(1 0 0 1.00227 0 0.250566)"/><path d="M82.55 94.53 76.12 102.34C75.9781 102.733 75.6074 102.996 75.19 103L75.11 103C74.8109 102.998 74.5284 102.862 74.34 102.63L67.67 94.53C67.3193 94.102 67.382 93.4707 67.81 93.12 68.238 92.7693 68.8693 92.832 69.22 93.26L74.22 99.26 74.22 81.83 76.22 81.83 76.22 99.11 81 93.26C81.3507 92.832 81.982 92.7693 82.41 93.12 82.838 93.4707 82.9007 94.102 82.55 94.53Z" transform="matrix(1 0 0 1.00227 0 0.250566)"/><path d="M80.94 61.5C80.94 62.0523 80.4923 62.5 79.94 62.5L76.19 62.5 76.19 66.19 74.19 66.19 74.19 62.5 70.28 62.5C69.7277 62.5 69.28 62.0523 69.28 61.5 69.28 60.9477 69.7277 60.5 70.28 60.5L74.19 60.5 74.19 48.33 76.19 41.19 76.19 60.5 79.94 60.5C80.4923 60.5 80.94 60.9477 80.94 61.5Z" transform="matrix(1 0 0 1.00227 0 0.250566)"/><path d="M51.06 65.9 51.07 48.58 49.07 42.82 49.07 58.96 51.06 65.9Z" transform="matrix(1 0 0 1.00227 0 0.250566)"/><path d="M23.94 64.8 23.94 36.5 20.05 36.5C19.4977 36.5 19.05 36.0523 19.05 35.5 19.05 34.9477 19.4977 34.5 20.05 34.5L23.94 34.5 23.94 18 25.94 18 25.94 34.5 29.72 34.5C30.2723 34.5 30.72 34.9477 30.72 35.5 30.72 36.0523 30.2723 36.5 29.72 36.5L25.94 36.5 25.94 58.75Z" transform="matrix(1 0 0 1.00227 0 0.250566)"/><text font-family="Arial,Arial_MSFontService,sans-serif" font-weight="700" font-size="5" transform="matrix(1 0 0 1.00227 0 126)">Created by Soremba</text><text font-family="Arial,Arial_MSFontService,sans-serif" font-weight="700" font-size="5" transform="matrix(1 0 0 1.00227 0 131)">from the Noun Project</text></g></svg>