<svg width="64" height="67" xmlns="http://www.w3.org/2000/svg" xmlns:xlink="http://www.w3.org/1999/xlink" xml:space="preserve" overflow="hidden"><defs><clipPath id="clip0"><rect x="0" y="0" width="64" height="67"/></clipPath></defs><g clip-path="url(#clip0)"><path d="M42 9C42 9.55229 41.5523 10 41 10 40.4477 10 40 9.55229 40 9 40 8.44771 40.4477 8 41 8 41.5523 8 42 8.44771 42 9Z" transform="scale(1 1.00136)"/><path d="M41 28 44 28 44 25C44 26.6569 42.6569 28 41 28Z" transform="scale(1 1.00136)"/><path d="M42 25C42 25.5523 41.5523 26 41 26 40.4477 26 40 25.5523 40 25 40 24.4477 40.4477 24 41 24 41.5523 24 42 24.4477 42 25Z" transform="scale(1 1.00136)"/><path d="M38 25 38 28 41 28C39.3431 28 38 26.6569 38 25Z" transform="scale(1 1.00136)"/><path d="M38 23 38 25C38 23.3431 39.3431 22 41 22 42.6569 22 44 23.3431 44 25L44 23C44 22.4477 44.4477 22 45 22 45.3348 22.0028 45.669 22.0295 46 22.08L46 9C46 6.23858 43.7614 4 41 4 38.2386 4 36 6.23858 36 9L36 22.08C36.331 22.0295 36.6652 22.0028 37 22 37.5523 22 38 22.4477 38 23ZM41 6C42.6569 6 44 7.34315 44 9 44 10.6569 42.6569 12 41 12 39.3431 12 38 10.6569 38 9 38 7.34315 39.3431 6 41 6Z" transform="scale(1 1.00136)"/><path d="M46 24.1 46 29C46 29.5523 45.5523 30 45 30L37 30C36.4477 30 36 29.5523 36 29L36 24.1C33.6734 24.5781 32.0026 26.6248 32 29L32 31C32.0033 33.7601 34.2399 35.9967 37 36 37.5523 36 38 36.4477 38 37L38 60 44 60 44 37C44 36.4477 44.4477 36 45 36 47.7601 35.9967 49.9967 33.7601 50 31L50 29C49.9974 26.6248 48.3266 24.5781 46 24.1Z" transform="scale(1 1.00136)"/><path d="M4 23 4 28 14 28 14 25C14 23.3431 15.3431 22 17 22L20 22 20 12 15 12C8.92784 12.0072 4.00716 16.9278 4 23Z" transform="scale(1 1.00136)"/><path d="M22 14 34 14 34 20 22 20Z" transform="scale(1 1.00136)"/><path d="M6 30 12 30 12 60 6 60Z" transform="scale(1 1.00136)"/><path d="M48 14 60 14 60 20 48 20Z" transform="scale(1 1.00136)"/><text font-family="Arial,Arial_MSFontService,sans-serif" font-weight="700" font-size="5" transform="matrix(1 0 0 1.00136 0 79)">Created by mynamepong</text><text font-family="Arial,Arial_MSFontService,sans-serif" font-weight="700" font-size="5" transform="matrix(1 0 0 1.00136 0 84)">from the Noun Project</text></g></svg>