<svg width="605" height="580" xmlns="http://www.w3.org/2000/svg" xmlns:xlink="http://www.w3.org/1999/xlink" xml:space="preserve" overflow="hidden"><defs><clipPath id="clip0"><rect x="0" y="0" width="605" height="580"/></clipPath></defs><g clip-path="url(#clip0)"><path d="M43.0752 479.285C43.0752 485.123 47.8124 489.865 53.6552 489.865L412.309 489.865C412.309 489.865 412.32 489.865 412.329 489.865L412.34 489.865 551.347 489.865C555.956 489.865 560.027 486.884 561.42 482.498 562.825 478.112 561.224 473.323 557.474 470.658L324.859 305.402 372.81 238.405C376.209 233.657 375.114 227.05 370.361 223.646L239.882 130.25C235.129 126.846 228.527 127.936 225.123 132.693L176.789 200.218 59.7823 117.092C55.027 113.708 48.4227 114.824 45.0309 119.587 41.6467 124.35 42.7652 130.958 47.5288 134.341L262.209 286.852 262.209 352.139 257.209 347.139C253.087 343.006 246.381 343.006 242.248 347.139 238.115 351.267 238.115 357.966 242.248 362.099L265.309 385.16C265.464 385.315 265.65 385.419 265.811 385.563 265.997 385.729 266.183 385.883 266.384 386.028 267.102 386.586 267.861 387.066 268.672 387.413 268.698 387.423 268.718 387.444 268.739 387.454 268.749 387.454 268.759 387.454 268.764 387.459 269.307 387.682 269.87 387.837 270.434 387.965 270.542 387.991 270.651 388.038 270.754 388.058 271.379 388.177 272.015 388.234 272.645 388.244 272.696 388.244 272.743 388.26 272.789 388.26L272.789 388.26C273.471 388.26 274.158 388.188 274.83 388.058 274.932 388.038 275.031 387.991 275.129 387.971 275.692 387.842 276.26 387.692 276.798 387.47 276.922 387.419 277.025 387.341 277.149 387.289 277.655 387.056 278.156 386.814 278.627 386.499 279.216 386.111 279.763 385.667 280.269 385.16L303.945 361.49C308.08 357.357 308.08 350.663 303.945 346.53 299.818 342.397 293.117 342.397 288.984 346.53L283.369 352.139 283.369 301.884 401.079 385.512C386.077 392.693 374.34 405.721 370.186 421.157 365.62 438.185 369.494 455.501 379.216 468.705L53.6552 468.705C47.8132 468.704 43.0752 473.437 43.0752 479.285ZM283.369 275.931 283.369 243.189C291.108 239.293 296.465 231.369 296.465 222.111 296.465 209.041 285.869 198.441 272.789 198.441 259.719 198.441 249.119 209.042 249.119 222.111 249.119 231.369 254.476 239.293 262.209 243.189L262.209 260.898 194.039 212.471 236.172 153.61 349.439 234.695 307.605 293.148 283.369 275.931ZM390.622 426.648C394.114 413.672 407.908 402.621 422.714 400.948 422.734 400.943 422.765 400.932 422.786 400.927L518.182 468.705 413.942 468.705C396.202 463.281 385.777 444.693 390.622 426.648Z" transform="scale(1 1.00029)"/><text font-family="Arial,Arial_MSFontService,sans-serif" font-weight="700" font-size="5" transform="matrix(0.75625 0 0 0.756469 0 617)">Created by abderraouf omara</text><text font-family="Arial,Arial_MSFontService,sans-serif" font-weight="700" font-size="5" transform="matrix(0.75625 0 0 0.756469 0 620)">from the Noun Project</text></g></svg>